<svg id="Layer_1" data-name="Layer 1" xmlns="http://www.w3.org/2000/svg" xmlns:xlink="http://www.w3.org/1999/xlink" viewBox="0 0 494 477"><defs><style>.cls-1{fill:none;}.cls-2{clip-path:url(#clip-path);}.cls-3{fill:url(#linear-gradient);}.cls-4{clip-path:url(#clip-path-2);}</style><clipPath id="clip-path"><path class="cls-1" d="M51,226.19V50h56.63A47.13,47.13,0,0,1,154.8,97.19c0,23.28-19.19,47.19-47.19,47.19l57.89,81.8Z"/></clipPath><linearGradient id="linear-gradient" x1="28.28" y1="197.04" x2="352.72" y2="78.96" gradientUnits="userSpaceOnUse"><stop offset="0" stop-color="#00c5d4"/><stop offset="0.48" stop-color="#3e5fd0"/><stop offset="0.8" stop-color="#6c4ce1"/><stop offset="1" stop-color="#8442e9"/></linearGradient><clipPath id="clip-path-2"><path class="cls-1" d="M174.31,50l65.44,176.19H246a88,88,0,0,0,88.09-88.09C334.14,88.38,293.24,50,246,50Z"/></clipPath></defs><title>Lock-up square (gradient)</title><g class="cls-2"><rect class="cls-3" x="41" y="44" width="299" height="188"/></g><g class="cls-4"><rect class="cls-3" x="41" y="44" width="299" height="188"/></g><path d="M81.26,332.51l-14-23.36H62v23.36H50v-60H72.85q10.45,0,15.93,5.1t5.48,13.42a17.31,17.31,0,0,1-3.78,11.38Q86.7,307,79.56,308.55l15,24ZM62,300.91h9.85q10.28,0,10.28-9.09a9,9,0,0,0-2.51-6.75q-2.51-2.42-7.77-2.42H62Z"/><path d="M131,287.66a15.27,15.27,0,0,1,6,7.56v-9.77h11.89v47.06H137v-9.85a15.49,15.49,0,0,1-6,7.6,17.88,17.88,0,0,1-10.19,2.85,20.21,20.21,0,0,1-10.7-2.89,19.51,19.51,0,0,1-7.43-8.37,32.29,32.29,0,0,1,0-25.74,19.51,19.51,0,0,1,7.43-8.37,20.22,20.22,0,0,1,10.7-2.89A18.09,18.09,0,0,1,131,287.66ZM115.49,299q-3.4,3.65-3.4,10t3.4,10a12.87,12.87,0,0,0,18-.09q3.52-3.7,3.53-9.9t-3.53-10a11.85,11.85,0,0,0-9-3.7A11.72,11.72,0,0,0,115.49,299Z"/><path d="M188.34,287.66a15.82,15.82,0,0,1,6.07,7.56V269.65H206.3v62.86H194.41v-9.85a16.06,16.06,0,0,1-6.07,7.6,17.68,17.68,0,0,1-10.15,2.85,20.21,20.21,0,0,1-10.7-2.89,19.5,19.5,0,0,1-7.43-8.37,32.28,32.28,0,0,1,0-25.74,19.5,19.5,0,0,1,7.43-8.37,20.22,20.22,0,0,1,10.7-2.89A17.88,17.88,0,0,1,188.34,287.66ZM172.92,299q-3.4,3.65-3.4,10t3.4,10a12.87,12.87,0,0,0,18-.09q3.53-3.7,3.53-9.9t-3.53-10a11.85,11.85,0,0,0-9-3.7A11.71,11.71,0,0,0,172.92,299Z"/><path d="M217.86,267.23a8.75,8.75,0,0,1,10.7,0,6,6,0,0,1,2,4.71,5.94,5.94,0,0,1-2,4.63,8.75,8.75,0,0,1-10.7,0,5.94,5.94,0,0,1-2-4.63A6,6,0,0,1,217.86,267.23Zm11.3,18.22v47.06h-12V285.45Z"/><path d="M276.34,289.78a21.53,21.53,0,0,1,7.6,13.42H271.29a9.77,9.77,0,0,0-3.48-5.9,10.7,10.7,0,0,0-6.88-2.17,10.27,10.27,0,0,0-7.94,3.53q-3.19,3.53-3.19,10.32T253,319.3a10.26,10.26,0,0,0,7.94,3.53,10.7,10.7,0,0,0,6.88-2.17,9.77,9.77,0,0,0,3.48-5.9h12.66a21.52,21.52,0,0,1-7.6,13.42q-6.07,4.93-15.16,4.93a25.05,25.05,0,0,1-12.23-2.93,20.59,20.59,0,0,1-8.32-8.37,29.25,29.25,0,0,1,0-25.7,20.26,20.26,0,0,1,8.32-8.37,25.36,25.36,0,0,1,12.23-2.89Q270.27,284.85,276.34,289.78Z"/><path d="M321.07,287.66a15.27,15.27,0,0,1,6,7.56v-9.77H339v47.06H327.1v-9.85a15.49,15.49,0,0,1-6,7.6,17.89,17.89,0,0,1-10.19,2.85,20.21,20.21,0,0,1-10.7-2.89,19.5,19.5,0,0,1-7.43-8.37,32.29,32.29,0,0,1,0-25.74,19.5,19.5,0,0,1,7.43-8.37,20.22,20.22,0,0,1,10.7-2.89A18.09,18.09,0,0,1,321.07,287.66ZM305.61,299q-3.4,3.65-3.4,10t3.4,10a12.87,12.87,0,0,0,18-.09q3.52-3.7,3.53-9.9t-3.53-10a11.85,11.85,0,0,0-9-3.7A11.72,11.72,0,0,0,305.61,299Z"/><path d="M361.84,269.65v62.86h-12V269.65Z"/><path d="M384.69,269.65v62.86h-12V269.65Z"/><path d="M403.63,285.45l12.83,31.94,11.89-31.94h13.17l-28.8,69.49H399.47l10.62-23.79-19.79-45.7Z"/><path d="M99,412.54a26,26,0,0,1-10.83,10.58,35.38,35.38,0,0,1-16.86,3.78H50v-60H71.32a36.05,36.05,0,0,1,16.86,3.7A25.57,25.57,0,0,1,99,381.07a35,35,0,0,1,0,31.47ZM85.3,411.09q5.31-5.1,5.31-14.27T85.3,382.47q-5.31-5.1-15-5.1H62v38.82H70.3Q80,416.19,85.3,411.09Z"/><path d="M112.44,361.61a8.75,8.75,0,0,1,10.7,0,6,6,0,0,1,2,4.71,5.94,5.94,0,0,1-2,4.63,8.75,8.75,0,0,1-10.7,0,5.94,5.94,0,0,1-2-4.63A6,6,0,0,1,112.44,361.61Zm11.3,18.22v47.06h-12V379.83Z"/><path d="M163.23,382a15.27,15.27,0,0,1,6,7.56v-9.77h11.89v47.23a26.13,26.13,0,0,1-2.59,11.76,19.12,19.12,0,0,1-7.73,8.2,24.47,24.47,0,0,1-12.44,3q-10.19,0-16.48-4.84A20,20,0,0,1,134.27,432h11.81a9.74,9.74,0,0,0,4,5.56,13.08,13.08,0,0,0,7.52,2,11.76,11.76,0,0,0,8.5-3.1q3.23-3.1,3.23-9.39V417a15.49,15.49,0,0,1-6,7.6A17.88,17.88,0,0,1,153,427.49a20.21,20.21,0,0,1-10.7-2.89,19.5,19.5,0,0,1-7.43-8.37,32.29,32.29,0,0,1,0-25.74,19.52,19.52,0,0,1,7.43-8.37,20.22,20.22,0,0,1,10.7-2.89A18.09,18.09,0,0,1,163.23,382Zm-15.46,11.3q-3.4,3.65-3.4,10t3.4,10a12.87,12.87,0,0,0,18-.09q3.53-3.69,3.53-9.9t-3.53-10a11.85,11.85,0,0,0-9-3.7A11.72,11.72,0,0,0,147.77,393.34Z"/><path d="M192.71,361.61a8.75,8.75,0,0,1,10.7,0,6,6,0,0,1,2,4.71,5.94,5.94,0,0,1-2,4.63,8.75,8.75,0,0,1-10.7,0,5.94,5.94,0,0,1-2-4.63A6,6,0,0,1,192.71,361.61ZM204,379.83v47.06H192V379.83Z"/><path d="M240,416.62v10.28h-6.29q-7.9,0-12.11-3.82t-4.21-12.74V389.94h-6.54V379.83h6.54V368.2h12v11.64h10.53v10.11H229.41V410.5q0,3.4,1.36,4.76t4.59,1.36Z"/><path d="M277.23,382a15.27,15.27,0,0,1,6,7.56v-9.77h11.89v47.06H283.26V417a15.48,15.48,0,0,1-6,7.6A17.88,17.88,0,0,1,267,427.49a20.21,20.21,0,0,1-10.7-2.89,19.49,19.49,0,0,1-7.43-8.37,32.29,32.29,0,0,1,0-25.74,19.5,19.5,0,0,1,7.43-8.37,20.22,20.22,0,0,1,10.7-2.89A18.09,18.09,0,0,1,277.23,382Zm-15.46,11.3q-3.4,3.65-3.4,10t3.4,10a12.87,12.87,0,0,0,18-.09q3.52-3.69,3.53-9.9t-3.53-10a11.85,11.85,0,0,0-9-3.7A11.72,11.72,0,0,0,261.77,393.34Z"/><path d="M318,364v62.86H306V364Z"/></svg>